<svg width="21" height="21" viewBox="0 0 21 21" fill="none" xmlns="http://www.w3.org/2000/svg">
<path fill-rule="evenodd" clip-rule="evenodd" d="M5.96288 17.8203C6.39005 17.8203 6.73725 18.1633 6.73725 18.5853C6.73725 19.0073 6.39005 19.3493 5.96288 19.3493C5.5357 19.3493 5.18951 19.0073 5.18951 18.5853C5.18951 18.1633 5.5357 17.8203 5.96288 17.8203Z" stroke="#222222" stroke-width="1.5" stroke-linecap="round" stroke-linejoin="round"/>
<path fill-rule="evenodd" clip-rule="evenodd" d="M17.3531 17.8203C17.7803 17.8203 18.1275 18.1633 18.1275 18.5853C18.1275 19.0073 17.7803 19.3493 17.3531 19.3493C16.926 19.3493 16.5788 19.0073 16.5788 18.5853C16.5788 18.1633 16.926 17.8203 17.3531 17.8203Z" stroke="#222222" stroke-width="1.5" stroke-linecap="round" stroke-linejoin="round"/>
<path d="M1.23322 1.25L3.3387 1.61L4.3135 13.083C4.39246 14.018 5.18303 14.736 6.13252 14.736H17.1782C18.0852 14.736 18.8545 14.078 18.9851 13.19L19.9457 6.632C20.0642 5.823 19.4295 5.099 18.6025 5.099H3.6768" stroke="#222222" stroke-width="1.5" stroke-linecap="round" stroke-linejoin="round"/>
<path d="M12.7481 8.79688H15.5551" stroke="#222222" stroke-width="1.5" stroke-linecap="round" stroke-linejoin="round"/>
</svg>
